<?xml version="1.0" standalone="no"?>
<!DOCTYPE svg PUBLIC "-//W3C//DTD SVG 20010904//EN"
 "http://www.w3.org/TR/2001/REC-SVG-20010904/DTD/svg10.dtd">
<svg version="1.0" xmlns="http://www.w3.org/2000/svg"
 width="2000.000000pt" height="1500.000000pt" viewBox="0 0 2000.000000 1500.000000"
 preserveAspectRatio="xMidYMid meet">

<g transform="translate(0.000000,1500.000000) scale(0.100000,-0.100000)"
fill="#000000" stroke="none">
<path d="M2810 7505 l0 -3425 3425 0 3425 0 0 1155 0 1155 -80 0 -80 0 0
-1075 0 -1075 -3270 0 -3270 0 0 3265 0 3265 3270 0 3270 0 0 -1075 0 -1075
80 0 80 0 0 1155 0 1155 -3425 0 -3425 0 0 -3425z"/>
<path d="M6220 8379 c-93 -8 -167 -21 -242 -40 -47 -12 -48 -26 -6 -93 23 -36
32 -62 31 -91 -1 -84 -100 -325 -326 -793 -137 -281 -274 -587 -292 -649 -5
-18 1 -27 34 -48 53 -36 110 -43 137 -19 13 12 40 75 69 159 44 129 138 371
148 381 21 22 394 39 458 21 l27 -7 4 -177 c6 -202 18 -256 76 -323 51 -60 84
-74 172 -73 115 1 260 62 359 150 l44 39 -22 41 -21 42 -66 -29 c-90 -41 -101
-40 -126 16 -41 94 -48 177 -58 684 -5 267 -14 530 -20 585 -10 95 -31 186
-47 211 -11 16 -216 24 -333 13z m22 -264 c14 -74 27 -469 21 -612 l-6 -143
-204 0 -203 0 14 33 c8 17 66 142 129 277 94 203 163 364 201 473 11 32 40 15
48 -28z"/>
<path d="M7370 8380 c-63 -4 -142 -13 -174 -19 -33 -6 -61 -11 -63 -11 -11 0
0 -47 17 -70 12 -16 32 -55 47 -86 22 -48 26 -70 24 -138 -2 -109 -30 -278
-101 -601 -76 -349 -92 -441 -93 -547 0 -76 3 -93 29 -145 98 -196 347 -184
699 35 75 47 80 49 83 29 15 -105 65 -168 149 -193 60 -17 104 -14 187 12 50
17 207 116 240 153 19 20 19 22 1 61 -10 23 -23 39 -29 36 -134 -57 -140 -58
-153 -40 -29 40 -9 184 107 764 95 479 123 649 118 720 l-3 45 -65 -3 c-82 -3
-155 -16 -247 -43 l-73 -22 0 -58 c0 -77 -33 -331 -64 -494 -88 -458 -148
-729 -164 -741 -38 -30 -181 -95 -237 -109 -107 -27 -152 -18 -180 35 -31 60
-15 184 80 625 95 437 107 510 108 630 0 81 -4 120 -16 148 -18 42 -6 41 -227
27z"/>
<path d="M9218 8379 c-76 -4 -204 -17 -286 -28 -81 -12 -151 -21 -154 -21 -4
0 -12 -8 -17 -18 -8 -15 1 -31 49 -86 81 -94 85 -107 71 -219 -17 -133 -54
-325 -123 -627 -33 -146 -81 -371 -108 -500 l-48 -235 71 -3 c82 -4 217 12
274 32 l38 13 17 113 c15 100 78 416 112 560 l13 55 63 0 64 0 9 -40 c31 -141
90 -363 117 -440 90 -255 176 -332 341 -306 108 18 230 75 339 160 l25 20 -22
38 c-25 44 -32 44 -120 13 -38 -14 -72 -20 -87 -16 -60 15 -145 183 -243 478
-37 110 -53 173 -46 175 6 2 39 21 72 41 174 105 274 282 275 487 0 123 -21
184 -88 250 -104 103 -233 126 -608 104z m260 -164 c45 -38 65 -96 65 -195 1
-149 -46 -282 -128 -363 -52 -53 -114 -77 -196 -77 l-57 0 14 58 c7 31 34 161
59 287 25 127 49 246 53 265 9 39 27 47 109 49 41 1 57 -4 81 -24z"/>
<path d="M10902 8379 c-228 -35 -446 -207 -580 -459 -175 -326 -195 -797 -47
-1045 104 -173 245 -250 455 -249 128 1 217 21 325 74 279 135 478 469 526
881 22 196 -1 362 -73 509 -71 145 -190 243 -338 278 -69 17 -197 22 -268 11z
m123 -160 c88 -24 143 -117 167 -279 21 -153 -8 -505 -61 -733 -70 -298 -201
-447 -370 -422 -86 13 -130 54 -166 155 -38 105 -37 520 0 720 48 254 161 481
269 537 65 34 101 39 161 22z"/>
<path d="M12336 8380 c-118 -8 -322 -31 -421 -48 -53 -10 -57 -34 -12 -81 73
-77 97 -120 97 -177 0 -84 -42 -308 -144 -765 -93 -419 -136 -625 -136 -656 0
-31 338 1 373 36 4 4 15 54 23 112 16 105 66 361 105 528 l21 91 63 0 64 0 11
-57 c59 -294 147 -552 224 -656 27 -38 90 -74 141 -82 58 -9 175 18 266 63 64
31 79 35 79 21 0 -50 129 -99 173 -66 9 6 34 64 56 127 62 187 153 411 170
420 53 28 435 34 469 8 8 -8 12 -52 12 -158 0 -173 12 -242 54 -313 44 -73 98
-102 191 -101 113 2 265 66 369 156 l39 34 -24 42 -25 41 -64 -30 c-78 -37
-100 -35 -123 12 -42 86 -48 156 -57 639 -11 572 -25 752 -66 831 -12 24 -19
26 -104 32 -111 8 -303 -7 -425 -34 -49 -10 -90 -19 -92 -19 -11 0 2 -33 32
-80 41 -64 44 -99 14 -190 -52 -159 -102 -272 -314 -715 -95 -198 -181 -381
-192 -406 -11 -25 -27 -46 -34 -46 -8 -1 -41 -13 -74 -27 -84 -36 -106 -34
-149 14 -43 48 -85 128 -141 275 -40 103 -117 337 -112 340 1 1 31 17 67 36
183 96 301 313 287 531 -11 164 -91 260 -254 304 -72 19 -267 25 -437 14z
m245 -156 c51 -26 74 -91 74 -209 0 -110 -14 -170 -57 -257 -59 -120 -142
-178 -256 -178 -62 0 -64 1 -59 23 14 64 116 576 119 597 2 16 11 27 28 31 45
13 120 9 151 -7z m1363 -89 c16 -65 26 -243 26 -497 l0 -278 -205 0 c-113 0
-205 2 -205 5 0 3 58 130 129 282 70 153 147 328 171 388 23 61 44 113 47 118
9 16 31 6 37 -18z"/>
</g>
</svg>
